# xmcd
#
# Track frame offsets:
#	150
#	11237
#	21982
#	37765
#	51525
#	63952
#	82775
#	97420
#	110620
#	123250
#	135672
#	151385
#
# Disc length: 2206 seconds
#
# Revision: 0
# Processed by: cddbd v1.4PL0 Copyright (c) Steve Scherf et al.
# Submitted via: audiograbber 1.81.01
#
DISCID=9d089c0c
DTITLE=Tony Renis - I Grandi Successi Originali cd2
DYEAR=1900
DGENRE=pop
TTITLE0=Il garofano rosso
TTITLE1=La ragazza di Liverpool
TTITLE2=Non mi dire mai good bye
TTITLE3=L'aereo parte
TTITLE4=Un uomo tra la folla
TTITLE5=Dove sei stata Susy?
TTITLE6=Nuvole
TTITLE7=Che notte sei
TTITLE8=Cosa non farei
TTITLE9=Non sono mai solo
TTITLE10=Venere (Venus)
TTITLE11=Amami per favore
EXTD=
EXTT0=
EXTT1=
EXTT2=
EXTT3=
EXTT4=
EXTT5=
EXTT6=
EXTT7=
EXTT8=
EXTT9=
EXTT10=
EXTT11=
PLAYORDER=
